<?xml version="1.0" standalone="no"?>
<!DOCTYPE svg PUBLIC "-//W3C//DTD SVG 20010904//EN"
 "http://www.w3.org/TR/2001/REC-SVG-20010904/DTD/svg10.dtd">
<svg version="1.0" xmlns="http://www.w3.org/2000/svg"
 width="260.000000pt" height="260.000000pt" viewBox="0 0 260.000000 260.000000"
 preserveAspectRatio="xMidYMid meet">
<metadata>
Created by potrace 1.11, written by Peter Selinger 2001-2013
</metadata>
<g transform="translate(0.000000,260.000000) scale(0.100000,-0.100000)"
fill="#000000" stroke="none">
<path d="M1180 2578 c-433 -39 -833 -307 -1031 -690 -72 -140 -119 -291 -136
-433 -13 -108 -5 -345 12 -387 4 -9 4 -22 0 -28 -3 -5 -2 -10 4 -10 5 0 8 -9
6 -20 -2 -11 1 -20 7 -20 6 0 8 -9 5 -20 -3 -11 1 -27 10 -35 11 -12 11 -15 1
-15 -11 0 -11 -2 0 -9 7 -4 14 -18 15 -29 1 -12 5 -22 10 -22 4 0 6 -4 2 -9
-3 -5 -1 -12 5 -16 6 -4 8 -11 5 -16 -4 -5 -2 -9 3 -9 5 0 9 -7 10 -15 1 -8 3
-22 4 -30 1 -8 5 -12 10 -9 7 5 12 -10 9 -28 0 -5 3 -8 8 -8 9 0 26 -48 22
-63 -1 -5 3 -6 8 -3 5 3 15 -2 22 -11 10 -11 10 -14 2 -9 -9 5 -11 2 -7 -8 3
-9 10 -13 15 -10 5 3 9 -2 9 -10 0 -9 5 -16 10 -16 6 0 10 -5 10 -11 0 -5 -4
-7 -10 -4 -16 10 -11 -1 7 -16 14 -12 16 -12 8 0 -5 10 -4 12 3 7 7 -4 12 -14
12 -22 0 -8 5 -14 10 -14 6 0 10 -8 10 -17 0 -9 3 -13 7 -10 10 10 35 -31 27
-45 -4 -6 -3 -8 3 -5 13 8 65 -31 58 -43 -7 -11 20 -31 30 -22 5 4 5 -1 1 -12
-4 -13 -2 -17 8 -13 8 3 24 -6 37 -21 l24 -27 -28 24 c-15 14 -27 21 -27 17 0
-14 45 -45 65 -46 17 0 17 -2 5 -10 -12 -8 -11 -10 8 -10 12 0 22 -4 22 -10 0
-5 7 -10 16 -10 9 0 12 -5 8 -12 -5 -8 -2 -9 10 -5 11 4 15 3 11 -4 -4 -6 1
-9 11 -7 13 2 18 -2 16 -14 -2 -12 2 -16 12 -12 8 3 17 0 22 -7 5 -8 3 -10 -7
-4 -11 7 -11 6 1 -9 13 -17 14 -17 20 -1 5 14 12 11 39 -21 23 -28 29 -32 21
-14 l-11 25 20 -22 c20 -24 37 -31 25 -11 -5 7 -3 8 5 4 7 -5 10 -15 7 -23 -3
-8 -1 -11 4 -8 6 3 10 2 10 -3 0 -5 7 -9 16 -9 14 0 14 2 -2 14 -10 7 -13 13
-7 13 7 0 15 -5 18 -10 4 -6 11 -8 16 -5 5 4 6 -2 2 -12 -6 -16 -5 -16 10 -4
15 12 17 12 11 -3 -4 -11 -1 -16 11 -16 9 0 13 5 10 10 -3 6 -1 10 4 10 6 0
11 -10 11 -22 0 -21 1 -21 13 -3 10 13 16 15 21 6 4 -6 12 -8 18 -5 7 4 8 2 4
-5 -6 -9 -11 -9 -22 0 -10 8 -14 8 -14 0 0 -10 13 -15 33 -12 4 0 7 -3 7 -7 0
-4 9 -8 19 -8 11 0 18 3 16 6 -2 4 3 7 11 7 9 0 13 -6 9 -16 -5 -12 -3 -13 6
-4 13 13 42 6 33 -8 -3 -5 0 -9 5 -9 6 0 11 5 11 11 0 6 7 3 16 -5 8 -9 20
-14 25 -11 5 4 9 1 9 -5 0 -6 5 -8 10 -5 6 4 8 10 5 15 -3 5 4 7 16 5 13 -3
26 -10 30 -17 4 -6 30 -12 58 -13 27 -1 48 2 45 6 -2 4 0 10 6 14 5 3 10 -2
11 -12 0 -11 3 -13 6 -5 2 6 10 9 16 5 19 -12 47 -14 47 -3 0 6 5 10 11 10 5
0 8 -4 5 -8 -3 -5 2 -9 10 -9 9 0 13 6 9 16 -4 14 -3 13 8 -1 12 -15 14 -15
25 0 7 9 10 11 7 5 -3 -7 -3 -13 2 -14 4 0 16 -2 26 -4 9 -2 15 1 11 6 -3 5
-11 6 -17 3 -7 -4 -9 -3 -4 1 13 15 48 13 43 -2 -4 -10 -1 -11 12 -5 21 10 32
10 52 -3 13 -7 13 -6 2 7 -7 9 -22 15 -33 13 -11 -2 -17 0 -14 5 5 9 26 7 56
-5 10 -3 20 -1 25 6 5 8 3 10 -7 4 -8 -5 -10 -4 -6 0 10 11 39 16 32 5 -3 -4
2 -10 10 -13 9 -4 12 -1 9 8 -5 11 3 13 35 10 22 -2 43 0 46 6 4 5 11 7 16 3
6 -3 13 4 16 15 5 20 6 20 19 4 10 -12 12 -13 9 -3 -3 9 4 21 16 28 12 8 18 9
15 4 -3 -6 1 -13 10 -16 8 -3 12 -2 9 3 -3 5 4 12 15 16 11 3 20 10 20 15 0 4
7 11 16 14 14 5 15 4 4 -9 -8 -10 -9 -15 -2 -15 6 0 16 9 22 20 6 11 16 20 23
20 8 0 7 -4 -3 -11 -13 -9 -13 -10 0 -6 8 2 14 11 14 20 -1 9 4 13 12 10 8 -3
11 -10 7 -17 -4 -6 1 -5 10 3 18 15 23 26 7 16 -6 -3 -10 -4 -10 -1 0 3 10 10
22 17 18 10 20 9 15 -5 -4 -10 -3 -15 3 -11 6 3 10 16 11 28 0 12 3 16 6 9 4
-10 9 -7 20 8 10 14 22 20 35 17 14 -4 22 0 25 14 3 10 12 19 20 19 9 0 11 5
7 12 -5 8 0 7 11 -2 12 -10 16 -10 11 -2 -4 7 -2 19 4 28 10 12 16 12 28 2 13
-11 15 -10 9 5 -4 12 -1 17 11 17 15 0 15 2 2 10 -13 8 -12 10 5 11 11 1 23 1
26 1 4 -1 6 6 5 16 -1 11 6 17 21 16 12 0 20 3 17 7 -2 4 2 14 10 22 8 8 12
18 8 22 -4 5 1 5 11 2 13 -5 20 0 26 16 5 12 7 25 4 30 -2 4 -1 7 4 6 20 -3
34 2 28 10 -3 6 3 14 12 20 10 6 15 11 10 11 -4 0 2 9 13 20 11 11 20 27 20
35 0 8 4 15 9 15 5 0 13 9 16 20 4 11 10 18 14 16 4 -3 8 5 8 16 1 12 8 25 15
29 7 5 14 13 14 19 1 5 2 15 3 21 0 5 5 7 11 4 6 -4 7 1 3 11 -4 12 -3 15 5
10 8 -5 10 -2 6 8 -3 9 -1 16 5 16 6 0 8 6 5 14 -3 7 1 20 8 27 13 15 20 33
21 56 0 7 6 14 13 17 7 3 11 14 9 26 -2 11 0 20 5 20 5 0 7 6 4 14 -3 8 0 17
5 21 6 3 9 11 6 16 -4 5 -3 9 2 9 4 0 9 10 10 23 1 12 5 38 8 57 15 79 14 394
-1 475 -125 653 -731 1104 -1404 1043z m516 -2510 c4 -6 3 -8 -4 -4 -6 3 -13
2 -17 -3 -7 -12 -45 -10 -45 2 0 5 6 7 13 4 8 -3 20 -1 28 4 18 11 17 11 25
-3z m-626 -24 c0 -8 -19 -13 -24 -6 -3 5 1 9 9 9 8 0 15 -2 15 -3z m100 -24
c0 -5 -4 -10 -9 -10 -6 0 -13 5 -16 10 -3 6 1 10 9 10 9 0 16 -4 16 -10z m44
2 c3 -5 -1 -9 -9 -9 -8 0 -15 4 -15 9 0 10 17 10 24 0z"/>
<path d="M336 425 c4 -8 11 -15 16 -15 6 0 5 6 -2 15 -7 8 -14 15 -16 15 -2 0
-1 -7 2 -15z"/>
<path d="M2115 291 c-3 -5 -2 -12 3 -15 5 -3 9 1 9 9 0 17 -3 19 -12 6z"/>
<path d="M560 230 c-9 -6 -10 -10 -3 -10 6 0 15 5 18 10 8 12 4 12 -15 0z"/>
<path d="M2005 211 c-3 -5 0 -13 6 -17 7 -4 9 -3 5 4 -3 5 0 13 6 15 9 4 10 6
1 6 -6 1 -14 -3 -18 -8z"/>
<path d="M646 177 c3 -10 9 -15 12 -12 3 3 0 11 -7 18 -10 9 -11 8 -5 -6z"/>
<path d="M1100 20 c0 -5 5 -10 11 -10 5 0 7 5 4 10 -3 6 -8 10 -11 10 -2 0 -4
-4 -4 -10z"/>
</g>
</svg>
